<svg xmlns="http://www.w3.org/2000/svg" xmlns:xlink="http://www.w3.org/1999/xlink" width="1587" zoomAndPan="magnify" viewBox="0 0 1190.25 1190.249948" height="1587" preserveAspectRatio="xMidYMid meet" version="1.0"><defs><clipPath id="id1"><path d="M 593 138.363281 L 784 138.363281 L 784 374 L 593 374 Z M 593 138.363281 " clip-rule="nonzero"/></clipPath><clipPath id="id2"><path d="M 479 411 L 1016.214844 411 L 1016.214844 1051.289062 L 479 1051.289062 Z M 479 411 " clip-rule="nonzero"/></clipPath><clipPath id="id3"><path d="M 173.746094 484 L 884 484 L 884 789 L 173.746094 789 Z M 173.746094 484 " clip-rule="nonzero"/></clipPath></defs><path fill="#75d2f2" d="M 553.394531 323.871094 C 553.394531 348.9375 572.46875 369.261719 596.007812 369.261719 C 619.542969 369.261719 638.628906 348.9375 638.628906 323.871094 C 638.628906 298.761719 596.007812 242.84375 596.007812 242.84375 C 596.007812 242.84375 553.394531 298.761719 553.394531 323.871094 " fill-opacity="1" fill-rule="nonzero"/><g clip-path="url(#id1)"><path fill="#d3d2d2" d="M 593.316406 167.605469 C 593.316406 151.523438 606.667969 138.378906 623.003906 138.378906 L 753.839844 138.378906 C 770.160156 138.378906 783.511719 151.339844 783.511719 167.1875 C 783.511719 183.027344 783.511719 196.179688 783.511719 196.40625 C 783.511719 196.640625 783.511719 210.171875 783.511719 226.5 L 783.511719 343.507812 C 783.511719 359.820312 770.160156 373.179688 753.839844 373.179688 L 741.988281 373.179688 C 725.667969 373.179688 712.308594 359.820312 712.308594 343.507812 L 712.308594 226.5 C 712.308594 210.171875 698.953125 196.820312 682.632812 196.820312 L 623.003906 196.820312 C 606.667969 196.820312 593.316406 183.671875 593.316406 167.605469 " fill-opacity="1" fill-rule="nonzero"/></g><path fill="#75d2f2" d="M 828.863281 455.261719 C 828.863281 479.050781 809.386719 498.515625 785.597656 498.515625 L 710.21875 498.515625 C 686.441406 498.515625 666.976562 479.050781 666.976562 455.261719 L 666.976562 342.949219 C 666.976562 319.179688 686.441406 299.691406 710.21875 299.691406 L 785.597656 299.691406 C 809.386719 299.691406 828.863281 319.179688 828.863281 342.949219 L 828.863281 455.261719 " fill-opacity="1" fill-rule="nonzero"/><g clip-path="url(#id2)"><path fill="#75d2f2" d="M 1016.21875 612.511719 L 1016.21875 1007.011719 C 1016.21875 1031.421875 996.375 1051.289062 971.902344 1051.289062 L 523.933594 1051.289062 C 499.460938 1051.289062 479.613281 1031.421875 479.613281 1007.011719 L 479.613281 612.511719 C 479.613281 501.640625 599.703125 411.738281 747.894531 411.738281 C 896.082031 411.738281 1016.21875 501.640625 1016.21875 612.511719 " fill-opacity="1" fill-rule="nonzero"/></g><path fill="#ffffff" d="M 603.9375 731.511719 C 603.9375 811 668.394531 875.433594 747.910156 875.433594 C 827.421875 875.433594 891.886719 811 891.886719 731.511719 C 891.886719 652.027344 827.421875 587.589844 747.910156 587.589844 C 668.394531 587.589844 603.9375 652.027344 603.9375 731.511719 " fill-opacity="1" fill-rule="nonzero"/><g clip-path="url(#id3)"><path fill="#f0c2a8" d="M 837.367188 524.941406 C 821.082031 522.148438 807.804688 529.507812 793.402344 535.957031 L 761.367188 551.269531 L 657.746094 600.648438 L 650.007812 604.351562 L 643.617188 607.417969 C 645.007812 606.664062 646.351562 605.800781 647.585938 604.890625 C 651.027344 602.472656 654.089844 599.515625 656.667969 596.082031 C 660.59375 590.871094 663.390625 584.578125 664.574219 577.648438 C 668.5 554.917969 653.664062 533.429688 631.628906 529.722656 C 631.628906 529.722656 440.503906 471.429688 377.996094 486.578125 C 339.730469 495.925781 242.121094 574.804688 191.226562 617.515625 C 188.109375 620.203125 185.152344 622.667969 182.414062 625.039062 C 176.980469 631.273438 173.761719 639.382812 173.761719 648.246094 C 173.761719 655.394531 175.855469 662.113281 179.507812 667.699219 L 186.601562 675.707031 C 186.660156 675.757812 186.765625 675.808594 186.816406 675.863281 L 273.511719 773.484375 L 277.921875 778.433594 C 284.3125 784.394531 292.917969 788.046875 302.320312 788.046875 C 309.738281 788.046875 316.566406 785.789062 322.261719 781.976562 C 322.476562 781.871094 322.636719 781.761719 322.746094 781.601562 C 323.65625 780.902344 324.570312 780.203125 325.539062 779.503906 C 361.605469 752.585938 422.65625 708.742188 446.683594 701.921875 C 508.226562 684.515625 625.125 729.753906 685.644531 708.964844 C 729.71875 693.863281 851.34375 627.347656 851.34375 627.347656 C 866.929688 617.136719 879.933594 605.644531 883.054688 587.324219 C 888.050781 557.984375 867.621094 530.042969 837.367188 524.941406 " fill-opacity="1" fill-rule="nonzero"/></g><path fill="#efaaa1" d="M 647.585938 604.890625 C 639.472656 606.605469 625.226562 608.8125 606.207031 608.8125 C 574.171875 608.8125 528.378906 602.527344 475.0625 576.84375 C 473.019531 575.875 472.214844 573.460938 473.183594 571.472656 C 474.148438 569.484375 476.570312 568.621094 478.558594 569.589844 C 578.039062 617.515625 652.160156 595.539062 652.914062 595.324219 C 654.253906 594.898438 655.648438 595.21875 656.667969 596.082031 C 654.089844 599.515625 651.027344 602.472656 647.585938 604.890625 " fill-opacity="1" fill-rule="nonzero"/><path fill="#efaaa1" d="M 657.746094 600.648438 C 657.421875 601.722656 656.511719 602.636719 655.277344 603.007812 C 654.84375 603.113281 653.019531 603.65625 650.007812 604.351562 L 657.746094 600.648438 " fill-opacity="1" fill-rule="nonzero"/></svg>