<svg xmlns="http://www.w3.org/2000/svg" xmlns:xlink="http://www.w3.org/1999/xlink" width="1587" zoomAndPan="magnify" viewBox="0 0 1190.25 1190.249948" height="1587" preserveAspectRatio="xMidYMid meet" version="1.0"><defs><clipPath id="id1"><path d="M 144.0625 144.0625 L 1045.742188 144.0625 L 1045.742188 1045.742188 L 144.0625 1045.742188 Z M 144.0625 144.0625 " clip-rule="nonzero"/></clipPath></defs><path fill="#4fc1e9" d="M 798.507812 158.605469 C 927.070312 158.605469 1031.199219 262.734375 1031.199219 391.296875 C 1031.199219 519.859375 927.070312 623.988281 798.507812 623.988281 C 778 623.988281 758.367188 621.371094 739.316406 616.425781 C 735.972656 604.0625 724.628906 594.902344 711.246094 594.902344 L 623.988281 594.902344 L 623.988281 304.035156 C 623.988281 287.167969 616.863281 272.042969 605.371094 261.425781 C 647.113281 199.46875 718.082031 158.605469 798.507812 158.605469 Z M 798.507812 158.605469 " fill-opacity="1" fill-rule="nonzero"/><path fill="#969faa" d="M 295.601562 769.421875 L 594.902344 769.421875 C 586.902344 769.421875 579.632812 772.621094 574.394531 778 C 569.015625 783.238281 565.816406 790.507812 565.816406 798.507812 C 565.816406 814.503906 578.902344 827.59375 594.902344 827.59375 L 623.988281 827.59375 C 623.988281 859.734375 597.957031 885.765625 565.816406 885.765625 L 304.035156 885.765625 L 304.035156 813.050781 C 304.035156 797.925781 301.128906 783.238281 295.457031 769.566406 Z M 295.601562 769.421875 " fill-opacity="1" fill-rule="nonzero"/><path fill="#69d6f4" d="M 565.816406 740.335938 C 565.816406 756.332031 578.902344 769.421875 594.902344 769.421875 L 295.601562 769.421875 L 295.457031 769.566406 C 287.75 750.078125 274.660156 732.917969 257.5 719.972656 L 245.863281 711.246094 L 289.058594 668.054688 C 299.09375 658.019531 306.65625 646.238281 311.597656 633.296875 C 338.359375 663.253906 377.1875 682.160156 420.382812 682.160156 C 500.660156 682.160156 565.816406 617.007812 565.816406 536.730469 C 565.816406 456.449219 500.660156 391.296875 420.382812 391.296875 C 340.105469 391.296875 274.949219 456.449219 274.949219 536.730469 C 274.949219 547.199219 276.113281 557.527344 278.148438 567.414062 C 273.640625 568.871094 269.421875 571.339844 265.933594 574.832031 L 216.777344 623.84375 L 216.777344 304.035156 C 216.777344 271.894531 242.808594 245.863281 274.949219 245.863281 L 362.210938 245.863281 C 362.210938 261.859375 368.753906 276.40625 379.226562 287.019531 C 389.84375 297.492188 404.386719 304.035156 420.382812 304.035156 C 452.523438 304.035156 478.554688 278.003906 478.554688 245.863281 L 565.816406 245.863281 C 581.085938 245.863281 594.902344 251.828125 605.371094 261.425781 C 616.863281 272.042969 623.988281 287.167969 623.988281 304.035156 L 623.988281 653.074219 L 594.902344 653.074219 C 586.902344 653.074219 579.632812 656.273438 574.394531 661.65625 C 569.015625 666.890625 565.816406 674.164062 565.816406 682.160156 C 565.816406 698.160156 578.902344 711.246094 594.902344 711.246094 C 586.902344 711.246094 579.632812 714.449219 574.394531 719.828125 C 569.015625 725.0625 565.816406 732.335938 565.816406 740.335938 Z M 565.816406 740.335938 " fill-opacity="1" fill-rule="nonzero"/><path fill="#ff826e" d="M 420.382812 391.296875 C 500.660156 391.296875 565.816406 456.449219 565.816406 536.730469 C 565.816406 617.007812 500.660156 682.160156 420.382812 682.160156 C 377.1875 682.160156 338.359375 663.253906 311.597656 633.296875 C 316.253906 621.660156 318.578125 609.300781 318.578125 596.648438 C 318.578125 588.210938 315.089844 580.359375 309.5625 574.832031 C 304.035156 569.304688 296.183594 565.816406 287.75 565.816406 C 284.546875 565.816406 281.203125 566.398438 278.148438 567.414062 C 276.113281 557.527344 274.949219 547.199219 274.949219 536.730469 C 274.949219 456.449219 340.105469 391.296875 420.382812 391.296875 Z M 420.382812 391.296875 " fill-opacity="1" fill-rule="nonzero"/><path fill="#f0d0b4" d="M 653.074219 769.421875 C 669.074219 769.421875 682.160156 782.507812 682.160156 798.507812 C 682.160156 806.507812 678.960938 813.777344 673.582031 819.011719 C 668.34375 824.394531 661.074219 827.59375 653.074219 827.59375 L 594.902344 827.59375 C 578.902344 827.59375 565.816406 814.503906 565.816406 798.507812 C 565.816406 790.507812 569.015625 783.238281 574.394531 778 C 579.632812 772.621094 586.902344 769.421875 594.902344 769.421875 Z M 653.074219 769.421875 " fill-opacity="1" fill-rule="nonzero"/><path fill="#f0d0b4" d="M 653.074219 711.246094 C 669.074219 711.246094 682.160156 724.335938 682.160156 740.335938 C 682.160156 748.332031 678.960938 755.605469 673.582031 760.839844 C 668.34375 766.222656 661.074219 769.421875 653.074219 769.421875 L 594.902344 769.421875 C 578.902344 769.421875 565.816406 756.332031 565.816406 740.335938 C 565.816406 732.335938 569.015625 725.0625 574.394531 719.828125 C 579.632812 714.449219 586.902344 711.246094 594.902344 711.246094 Z M 653.074219 711.246094 " fill-opacity="1" fill-rule="nonzero"/><path fill="#f0d0b4" d="M 653.074219 653.074219 C 669.074219 653.074219 682.160156 666.164062 682.160156 682.160156 C 682.160156 690.160156 678.960938 697.433594 673.582031 702.667969 C 668.34375 708.046875 661.074219 711.246094 653.074219 711.246094 L 594.902344 711.246094 C 578.902344 711.246094 565.816406 698.160156 565.816406 682.160156 C 565.816406 674.164062 569.015625 666.890625 574.394531 661.65625 C 579.632812 656.273438 586.902344 653.074219 594.902344 653.074219 Z M 653.074219 653.074219 " fill-opacity="1" fill-rule="nonzero"/><path fill="#f0d0b4" d="M 739.316406 616.425781 C 740.042969 618.753906 740.335938 621.371094 740.335938 623.988281 C 740.335938 631.988281 737.136719 639.257812 731.753906 644.496094 C 726.519531 649.875 719.246094 653.074219 711.246094 653.074219 L 623.988281 653.074219 L 623.988281 594.902344 L 711.246094 594.902344 C 724.628906 594.902344 735.972656 604.0625 739.316406 616.425781 Z M 739.316406 616.425781 " fill-opacity="1" fill-rule="nonzero"/><path fill="#f0d0b4" d="M 565.816406 885.765625 L 536.730469 943.941406 L 536.730469 1031.199219 L 245.863281 1031.199219 L 245.863281 943.941406 L 177.21875 817.996094 C 165.003906 795.742188 158.605469 770.585938 158.605469 745.132812 C 158.605469 704.847656 174.601562 666.164062 203.105469 637.511719 L 216.777344 623.988281 L 216.777344 623.84375 L 265.933594 574.832031 C 269.421875 571.339844 273.640625 568.871094 278.148438 567.414062 C 281.203125 566.398438 284.546875 565.816406 287.75 565.816406 C 296.183594 565.816406 304.035156 569.304688 309.5625 574.832031 C 315.089844 580.359375 318.578125 588.210938 318.578125 596.648438 C 318.578125 609.300781 316.253906 621.660156 311.597656 633.296875 C 306.65625 646.238281 299.09375 658.019531 289.058594 668.054688 L 245.863281 711.246094 L 257.5 719.972656 C 274.660156 732.917969 287.75 750.078125 295.457031 769.566406 C 301.128906 783.238281 304.035156 797.925781 304.035156 813.050781 L 304.035156 885.765625 Z M 565.816406 885.765625 " fill-opacity="1" fill-rule="nonzero"/><path fill="#4fc1e9" d="M 362.210938 245.863281 L 478.554688 245.863281 C 478.554688 278.003906 452.523438 304.035156 420.382812 304.035156 C 404.386719 304.035156 389.84375 297.492188 379.226562 287.019531 C 368.753906 276.40625 362.210938 261.859375 362.210938 245.863281 Z M 362.210938 245.863281 " fill-opacity="1" fill-rule="nonzero"/><path fill="#000000" d="M 289.492188 304.035156 C 289.492188 304.992188 289.398438 305.9375 289.214844 306.875 C 289.027344 307.808594 288.75 308.71875 288.386719 309.601562 C 288.019531 310.484375 287.574219 311.324219 287.042969 312.117188 C 286.511719 312.910156 285.910156 313.644531 285.234375 314.320312 C 284.558594 314.996094 283.824219 315.597656 283.03125 316.128906 C 282.234375 316.660156 281.398438 317.105469 280.515625 317.472656 C 279.632812 317.839844 278.722656 318.113281 277.789062 318.300781 C 276.851562 318.488281 275.90625 318.578125 274.949219 318.578125 C 273.996094 318.578125 273.050781 318.488281 272.113281 318.300781 C 271.175781 318.113281 270.265625 317.839844 269.382812 317.472656 C 268.503906 317.105469 267.664062 316.660156 266.871094 316.128906 C 266.078125 315.597656 265.339844 314.996094 264.667969 314.320312 C 263.992188 313.644531 263.386719 312.910156 262.859375 312.117188 C 262.328125 311.324219 261.878906 310.484375 261.515625 309.601562 C 261.148438 308.71875 260.871094 307.808594 260.6875 306.875 C 260.5 305.9375 260.40625 304.992188 260.40625 304.035156 C 260.40625 303.082031 260.5 302.136719 260.6875 301.199219 C 260.871094 300.261719 261.148438 299.351562 261.515625 298.472656 C 261.878906 297.589844 262.328125 296.75 262.859375 295.957031 C 263.386719 295.164062 263.992188 294.429688 264.667969 293.753906 C 265.339844 293.078125 266.078125 292.476562 266.871094 291.945312 C 267.664062 291.414062 268.503906 290.964844 269.382812 290.601562 C 270.265625 290.234375 271.175781 289.960938 272.113281 289.773438 C 273.050781 289.585938 273.996094 289.492188 274.949219 289.492188 C 275.90625 289.492188 276.851562 289.585938 277.789062 289.773438 C 278.722656 289.960938 279.632812 290.234375 280.515625 290.601562 C 281.398438 290.964844 282.234375 291.414062 283.03125 291.945312 C 283.824219 292.476562 284.558594 293.078125 285.234375 293.753906 C 285.910156 294.429688 286.511719 295.164062 287.042969 295.957031 C 287.574219 296.75 288.019531 297.589844 288.386719 298.472656 C 288.75 299.351562 289.027344 300.261719 289.214844 301.199219 C 289.398438 302.136719 289.492188 303.082031 289.492188 304.035156 Z M 289.492188 304.035156 " fill-opacity="1" fill-rule="nonzero"/><path fill="#000000" d="M 376.753906 813.050781 L 464.011719 813.050781 L 464.011719 842.136719 L 376.753906 842.136719 Z M 376.753906 813.050781 " fill-opacity="1" fill-rule="nonzero"/><path fill="#000000" d="M 347.359375 552 L 367.925781 572.5625 C 381.667969 558.835938 399.933594 551.273438 419.351562 551.273438 C 438.78125 551.273438 457.046875 558.835938 470.773438 572.5625 L 491.339844 552 C 472.113281 532.773438 446.546875 522.183594 419.351562 522.183594 C 392.152344 522.183594 366.601562 532.773438 347.359375 552 Z M 347.359375 552 " fill-opacity="1" fill-rule="nonzero"/><path fill="#000000" d="M 511.902344 531.433594 L 532.46875 510.871094 C 470.089844 448.496094 368.59375 448.496094 306.21875 510.871094 L 326.78125 531.433594 C 377.828125 480.402344 460.855469 480.402344 511.902344 531.433594 Z M 511.902344 531.433594 " fill-opacity="1" fill-rule="nonzero"/><path fill="#000000" d="M 388.503906 593.140625 L 409.066406 613.707031 C 414.59375 608.207031 424.148438 608.238281 429.617188 613.707031 L 450.210938 593.15625 C 433.746094 576.664062 404.980469 576.648438 388.503906 593.140625 Z M 388.503906 593.140625 " fill-opacity="1" fill-rule="nonzero"/><g clip-path="url(#id1)"><path fill="#000000" d="M 798.507812 144.0625 C 721.066406 144.0625 648.667969 180.171875 601.96875 241.324219 C 591.265625 235.128906 579.035156 231.320312 565.816406 231.320312 L 274.949219 231.320312 C 234.855469 231.320312 202.234375 263.941406 202.234375 304.035156 L 202.234375 617.953125 L 192.882812 627.289062 C 161.394531 658.789062 144.0625 700.644531 144.0625 745.175781 C 144.0625 772.96875 151.101562 800.574219 164.40625 824.992188 L 231.320312 947.648438 L 231.320312 1045.742188 L 551.273438 1045.742188 L 551.273438 947.371094 L 575.109375 899.726562 C 606 895.773438 630.824219 872.3125 636.988281 842.152344 L 653.074219 842.152344 C 677.128906 842.152344 696.703125 822.578125 696.703125 798.523438 C 696.703125 787.308594 692.328125 777.171875 685.359375 769.433594 C 692.339844 761.699219 696.703125 751.5625 696.703125 740.347656 C 696.703125 729.136719 692.328125 719 685.359375 711.261719 C 692.339844 703.523438 696.703125 693.386719 696.703125 682.175781 C 696.703125 677.054688 695.65625 672.199219 694.027344 667.632812 L 711.246094 667.632812 C 731.710938 667.632812 748.796875 653.421875 753.496094 634.386719 C 768.285156 637.089844 783.351562 638.53125 798.507812 638.53125 C 934.835938 638.53125 1045.742188 527.625 1045.742188 391.296875 C 1045.742188 254.96875 934.835938 144.0625 798.507812 144.0625 Z M 798.507812 173.148438 C 830.96875 173.148438 860.375 207.863281 879.164062 260.40625 L 717.851562 260.40625 C 736.640625 207.863281 766.046875 173.148438 798.507812 173.148438 Z M 888.078125 289.492188 C 894.796875 315.976562 898.929688 345.601562 899.945312 376.753906 L 697.054688 376.753906 C 698.070312 345.601562 702.203125 315.976562 708.921875 289.492188 Z M 667.996094 376.753906 L 638.53125 376.753906 L 638.53125 304.035156 C 638.53125 299.0625 638.023438 294.191406 637.0625 289.492188 L 678.933594 289.492188 C 672.679688 316.253906 668.914062 345.644531 667.996094 376.753906 Z M 638.53125 405.839844 L 667.96875 405.839844 C 668.882812 436.308594 672.664062 465.800781 679.050781 493.097656 L 638.53125 493.097656 Z M 697.039062 405.839844 L 899.945312 405.839844 C 898.929688 436.992188 894.796875 466.617188 888.078125 493.097656 L 708.832031 493.097656 C 701.984375 466.207031 698.027344 436.582031 697.039062 405.839844 Z M 929.019531 405.839844 L 1015.914062 405.839844 C 1013.835938 437.179688 1005.269531 466.746094 991.292969 493.097656 L 918.082031 493.097656 C 924.335938 466.339844 928.101562 436.949219 929.019531 405.839844 Z M 929.019531 376.753906 C 928.101562 345.644531 924.335938 316.253906 918.082031 289.492188 L 991.292969 289.492188 C 1005.269531 315.847656 1013.835938 345.414062 1015.914062 376.753906 Z M 972.621094 260.40625 L 909.96875 260.40625 C 900.398438 230.984375 887.746094 205.695312 872.648438 186.394531 C 912.773438 200.96875 947.359375 226.898438 972.621094 260.40625 Z M 724.554688 186.132812 C 709.371094 205.476562 696.660156 230.855469 687.046875 260.40625 L 624.03125 260.40625 C 649.917969 225.953125 684.96875 200.402344 724.554688 186.132812 Z M 461.335938 260.40625 C 455.316406 277.292969 439.316406 289.492188 420.382812 289.492188 C 401.449219 289.492188 385.449219 277.292969 379.429688 260.40625 Z M 231.320312 304.035156 C 231.320312 279.980469 250.894531 260.40625 274.949219 260.40625 L 349.136719 260.40625 C 355.898438 293.550781 385.261719 318.578125 420.382812 318.578125 C 455.503906 318.578125 484.867188 293.550781 491.628906 260.40625 L 565.816406 260.40625 C 589.871094 260.40625 609.445312 279.980469 609.445312 304.035156 L 609.445312 638.53125 L 594.902344 638.53125 C 570.847656 638.53125 551.273438 658.105469 551.273438 682.160156 C 551.273438 693.375 555.648438 703.511719 562.617188 711.246094 C 555.636719 718.984375 551.273438 729.121094 551.273438 740.335938 C 551.273438 745.453125 552.320312 750.3125 553.949219 754.878906 L 304.820312 754.878906 C 296.152344 737.410156 283.660156 721.863281 268 709.691406 L 299.265625 678.410156 C 305.636719 672.039062 311.074219 664.984375 315.730469 657.511719 C 344.625 682.539062 381.710938 696.703125 420.382812 696.703125 C 508.585938 696.703125 580.359375 624.933594 580.359375 536.730469 C 580.359375 448.523438 508.585938 376.753906 420.382812 376.753906 C 332.179688 376.753906 260.40625 448.523438 260.40625 536.730469 C 260.40625 544.261719 261.132812 551.765625 262.179688 559.210938 C 259.855469 560.796875 257.644531 562.558594 255.636719 564.566406 L 231.320312 588.878906 Z M 667.617188 740.335938 C 667.617188 748.347656 661.101562 754.878906 653.074219 754.878906 L 594.902344 754.878906 C 586.875 754.878906 580.359375 748.347656 580.359375 740.335938 C 580.359375 732.320312 586.875 725.789062 594.902344 725.789062 L 653.074219 725.789062 C 661.101562 725.789062 667.617188 732.320312 667.617188 740.335938 Z M 290.367188 551.535156 C 289.8125 546.617188 289.492188 541.6875 289.492188 536.730469 C 289.492188 464.566406 348.203125 405.839844 420.382812 405.839844 C 492.5625 405.839844 551.273438 464.566406 551.273438 536.730469 C 551.273438 608.890625 492.5625 667.617188 420.382812 667.617188 C 385.8125 667.617188 352.800781 653.757812 328.367188 629.558594 C 331.480469 619.015625 333.125 607.960938 333.125 596.660156 C 333.125 572.535156 314.144531 552.929688 290.367188 551.535156 Z M 522.183594 940.507812 L 522.183594 1016.65625 L 260.40625 1016.65625 L 260.40625 940.230469 L 189.945312 811.058594 C 178.949219 790.902344 173.148438 768.113281 173.148438 745.175781 C 173.148438 708.425781 187.457031 673.855469 213.445312 647.867188 L 276.1875 585.144531 C 279.242188 582.105469 283.445312 580.359375 287.734375 580.359375 C 296.722656 580.359375 304.035156 587.671875 304.035156 596.660156 C 304.035156 619.785156 295.035156 641.511719 278.703125 657.84375 L 223.730469 712.820312 L 248.773438 731.609375 C 274.265625 750.734375 289.492188 781.1875 289.492188 813.050781 L 289.492188 900.308594 L 542.285156 900.308594 Z M 565.816406 871.222656 L 318.578125 871.222656 L 318.578125 813.050781 C 318.578125 803.191406 317.417969 793.433594 315.234375 783.964844 L 553.949219 783.964844 C 552.320312 788.53125 551.273438 793.386719 551.273438 798.507812 C 551.273438 822.5625 570.847656 842.136719 594.902344 842.136719 L 606.769531 842.136719 C 600.75 859.023438 584.75 871.222656 565.816406 871.222656 Z M 653.074219 813.050781 L 594.902344 813.050781 C 586.875 813.050781 580.359375 806.519531 580.359375 798.507812 C 580.359375 790.492188 586.875 783.964844 594.902344 783.964844 L 653.074219 783.964844 C 661.101562 783.964844 667.617188 790.492188 667.617188 798.507812 C 667.617188 806.519531 661.101562 813.050781 653.074219 813.050781 Z M 667.617188 682.160156 C 667.617188 690.175781 661.101562 696.703125 653.074219 696.703125 L 594.902344 696.703125 C 586.875 696.703125 580.359375 690.175781 580.359375 682.160156 C 580.359375 674.148438 586.875 667.617188 594.902344 667.617188 L 653.074219 667.617188 C 661.101562 667.617188 667.617188 674.148438 667.617188 682.160156 Z M 711.246094 638.53125 L 638.53125 638.53125 L 638.53125 609.445312 L 711.246094 609.445312 C 719.277344 609.445312 725.792969 615.976562 725.792969 623.988281 C 725.792969 632 719.277344 638.53125 711.246094 638.53125 Z M 749.730469 603.859375 C 742.414062 589.957031 728 580.359375 711.246094 580.359375 L 638.53125 580.359375 L 638.53125 522.183594 L 687.003906 522.183594 C 691.089844 534.78125 695.757812 546.734375 701.039062 557.832031 L 727.316406 545.351562 C 723.855469 538.066406 720.757812 530.242188 717.851562 522.183594 L 879.164062 522.183594 C 860.375 574.730469 830.96875 609.445312 798.507812 609.445312 C 782.015625 609.445312 765.667969 607.496094 749.730469 603.859375 Z M 872.648438 596.195312 C 887.746094 576.898438 900.398438 551.605469 909.96875 522.183594 L 972.621094 522.183594 C 947.359375 555.691406 912.773438 581.625 872.648438 596.195312 Z M 872.648438 596.195312 " fill-opacity="1" fill-rule="nonzero"/></g></svg>