<svg xmlns="http://www.w3.org/2000/svg" xmlns:xlink="http://www.w3.org/1999/xlink" width="1587" zoomAndPan="magnify" viewBox="0 0 1190.25 1190.249948" height="1587" preserveAspectRatio="xMidYMid meet" version="1.0"><defs><clipPath id="id1"><path d="M 84.019531 84.019531 L 1105.625 84.019531 L 1105.625 1105.625 L 84.019531 1105.625 Z M 84.019531 84.019531 " clip-rule="nonzero"/></clipPath></defs><g clip-path="url(#id1)"><path fill="#fab60d" d="M 594.824219 1050.84375 C 342.964844 1050.84375 138.796875 846.6875 138.796875 594.824219 C 138.796875 342.957031 342.964844 138.800781 594.824219 138.800781 C 846.6875 138.800781 1050.84375 342.957031 1050.84375 594.824219 C 1050.84375 846.6875 846.6875 1050.84375 594.824219 1050.84375 Z M 594.824219 84.003906 C 312.699219 84.003906 83.996094 312.699219 83.996094 594.824219 C 83.996094 876.945312 312.699219 1105.644531 594.824219 1105.644531 C 876.945312 1105.644531 1105.644531 876.945312 1105.644531 594.824219 C 1105.644531 312.699219 876.945312 84.003906 594.824219 84.003906 " fill-opacity="1" fill-rule="nonzero"/></g><path fill="#ee6a26" d="M 594.824219 906.34375 C 566.09375 906.34375 538.292969 902.40625 511.878906 895.121094 L 511.878906 680.921875 C 511.878906 659.316406 520.847656 638.808594 536.246094 623.65625 C 558.367188 601.867188 572.796875 566.121094 572.796875 525.722656 C 572.796875 459.367188 533.898438 405.578125 485.917969 405.578125 C 437.9375 405.578125 399.046875 459.367188 399.046875 525.722656 C 399.046875 566.121094 413.472656 601.867188 435.597656 623.65625 C 450.996094 638.808594 459.960938 659.316406 459.960938 680.921875 L 459.960938 934.003906 C 473.4375 939.371094 487.3125 943.9375 501.527344 947.683594 L 501.527344 947.703125 L 501.703125 947.730469 C 505.058594 948.625 508.421875 949.46875 511.816406 950.257812 L 511.816406 950.230469 C 538.484375 956.445312 566.265625 959.742188 594.824219 959.742188 C 619.035156 959.742188 642.691406 957.367188 665.574219 952.878906 L 665.574219 898.257812 C 642.855469 903.550781 619.167969 906.34375 594.824219 906.34375 " fill-opacity="1" fill-rule="nonzero"/><path fill="#ee6a26" d="M 594.824219 229.902344 C 393.28125 229.902344 229.894531 393.28125 229.894531 594.824219 C 229.894531 740.046875 314.738281 865.464844 437.5625 924.207031 L 437.5625 863.769531 C 345.28125 809.683594 283.308594 709.507812 283.308594 594.824219 C 283.308594 422.773438 422.777344 283.300781 594.824219 283.300781 C 766.875 283.300781 906.34375 422.773438 906.34375 594.824219 C 906.34375 714.472656 838.863281 818.328125 739.898438 870.507812 L 739.898438 685.933594 C 739.898438 663.523438 749.492188 642.292969 765.949219 627.078125 C 781.105469 613.085938 790.589844 593.039062 790.589844 570.773438 L 790.589844 429.863281 C 790.589844 422.324219 784.496094 416.214844 776.957031 416.214844 C 769.417969 416.214844 763.308594 422.324219 763.308594 429.863281 L 763.308594 539.917969 L 749.152344 539.917969 L 749.152344 429.863281 C 749.152344 422.324219 743.039062 416.214844 735.511719 416.214844 L 734.664062 416.214844 C 727.125 416.214844 721.03125 422.324219 721.03125 429.863281 L 721.03125 539.917969 L 706.875 539.917969 L 706.875 429.863281 C 706.875 422.324219 700.757812 416.214844 693.222656 416.214844 L 692.386719 416.214844 C 684.847656 416.214844 678.738281 422.324219 678.738281 429.863281 L 678.738281 539.917969 L 664.582031 539.917969 L 664.582031 429.863281 C 664.582031 422.324219 658.46875 416.214844 650.941406 416.214844 C 643.40625 416.214844 637.289062 422.324219 637.289062 429.863281 L 637.289062 570.773438 C 637.289062 593.039062 646.78125 613.085938 661.933594 627.078125 C 678.394531 642.292969 687.984375 663.523438 687.984375 685.933594 L 687.984375 947.730469 C 701.917969 944.058594 715.53125 939.5625 728.761719 934.347656 L 728.761719 934.394531 C 864.039062 880.976562 959.742188 749.074219 959.742188 594.824219 C 959.742188 393.28125 796.363281 229.902344 594.824219 229.902344 " fill-opacity="1" fill-rule="nonzero"/></svg>